<svg xmlns="http://www.w3.org/2000/svg" xmlns:xlink="http://www.w3.org/1999/xlink" width="126" height="126" viewBox="0 0 126 126">
  <defs>
    <filter id="Path_329" x="44.736" y="44.825" width="76.529" height="83.313" filterUnits="userSpaceOnUse">
      <feOffset dy="3" input="SourceAlpha"/>
      <feGaussianBlur stdDeviation="1" result="blur"/>
      <feFlood flood-opacity="0.161"/>
      <feComposite operator="in" in2="blur"/>
      <feComposite in="SourceGraphic"/>
    </filter>
    <filter id="Path_330" x="53.217" y="52.458" width="19.568" height="19.569" filterUnits="userSpaceOnUse">
      <feOffset dy="3" input="SourceAlpha"/>
      <feGaussianBlur stdDeviation="1" result="blur-2"/>
      <feFlood flood-opacity="0.161"/>
      <feComposite operator="in" in2="blur-2"/>
      <feComposite in="SourceGraphic"/>
    </filter>
    <clipPath id="clip-Icono">
      <rect width="126" height="126"/>
    </clipPath>
  </defs>
  <g id="Icono" clip-path="url(#clip-Icono)">
    <rect width="126" height="126" fill="none"/>
    <g id="Icono_Lugar" data-name="Icono Lugar" transform="translate(-1027.936 -350.936)">
      <g id="Group_331" data-name="Group 331" transform="translate(1075.671 395.761)">
        <g transform="matrix(1, 0, 0, 1, -47.74, -44.83)" filter="url(#Path_329)">
          <path id="Path_329-2" data-name="Path 329" d="M88.765,640A15.664,15.664,0,0,0,73.5,655.264a16.916,16.916,0,0,0,1.994,7.044,2.4,2.4,0,0,0,.117.209c9.231,14.8,11.98,14.8,13.154,14.8,1.831,0,3.812-1.286,8.517-7.863,2.451-3.427,4.55-6.794,4.638-6.935a2.357,2.357,0,0,0,.116-.207,16.916,16.916,0,0,0,1.994-7.044A15.664,15.664,0,0,0,88.765,640Zm10.995,21.171s-8.462,13.6-10.995,13.6c-2.512,0-10.995-13.6-10.995-13.6a14.463,14.463,0,0,1-1.726-5.907,12.72,12.72,0,0,1,25.441,0A14.463,14.463,0,0,1,99.759,661.171Z" transform="translate(-25.76 -595.17)" fill="#fff"/>
        </g>
        <g transform="matrix(1, 0, 0, 1, -47.74, -44.83)" filter="url(#Path_330)">
          <path id="Path_330-2" data-name="Path 330" d="M90.284,649a6.784,6.784,0,1,0,6.784,6.784A6.792,6.792,0,0,0,90.284,649Zm0,11.024a4.24,4.24,0,1,1,4.24-4.24A4.241,4.241,0,0,1,90.284,660.024Z" transform="translate(-27.28 -596.54)" fill="#fff"/>
        </g>
      </g>
    </g>
  </g>
</svg>
