<svg xmlns="http://www.w3.org/2000/svg" xmlns:xlink="http://www.w3.org/1999/xlink" width="126" height="126" viewBox="0 0 126 126">
  <defs>
    <clipPath id="clip-Icono_9">
      <rect width="126" height="126"/>
    </clipPath>
  </defs>
  <g id="Icono_9" data-name="Icono – 9" clip-path="url(#clip-Icono_9)">
    <rect width="126" height="126" fill="none"/>
    <g id="_042-chat" data-name="042-chat" transform="translate(32.75 17.351)">
      <path id="Path_187" data-name="Path 187" d="M159.468,49.293h-7.514a1.8,1.8,0,1,0,0,3.6h7.514a1.8,1.8,0,0,0,0-3.6Zm0,0" transform="translate(-132.578 -42.189)" fill="#8dc4b7"/>
      <path id="Path_188" data-name="Path 188" d="M151.954,569.31h7.514a1.8,1.8,0,1,0,0-3.6h-7.514a1.8,1.8,0,1,0,0,3.6Zm0,0" transform="translate(-132.578 -484.179)" fill="#8dc4b7"/>
      <path id="Path_189" data-name="Path 189" d="M65.617,44.786a23.287,23.287,0,0,0-14.6-21.581V9.551A9.561,9.561,0,0,0,41.464,0H4.8A9.561,9.561,0,0,0-4.75,9.551V38.911a1.8,1.8,0,0,0,1.8,1.8,1.8,1.8,0,0,0,1.8-1.8V17.81H47.412v4.28A23.258,23.258,0,0,0,21.174,54.358L16.8,68.32a1.8,1.8,0,0,0,2.355,2.224L32.1,65.653a23.286,23.286,0,0,0,15.308,1.831v6.94H-1.147v-21.1a1.8,1.8,0,0,0-1.8-1.8,1.8,1.8,0,0,0-1.8,1.8V82.684A9.561,9.561,0,0,0,4.8,92.235H41.464a9.561,9.561,0,0,0,9.551-9.551V66.368A23.286,23.286,0,0,0,65.617,44.786ZM-1.147,14.207V9.551A5.955,5.955,0,0,1,4.8,3.6H41.464a5.955,5.955,0,0,1,5.948,5.948v4.657H-1.147ZM47.412,82.684a5.955,5.955,0,0,1-5.948,5.948H4.8a5.955,5.955,0,0,1-5.948-5.948V78.027H47.412Zm-5.045-18.25a19.677,19.677,0,0,1-9.3-2.335,1.8,1.8,0,0,0-1.491-.1L21.347,65.865l3.475-11.1a1.8,1.8,0,0,0-.1-1.333,19.446,19.446,0,0,1-2-8.645A19.647,19.647,0,1,1,42.367,64.434Zm0,0" fill="#8dc4b7"/>
      <path id="Path_190" data-name="Path 190" d="M257.675,333.587a1.8,1.8,0,0,0-2.389.885,10.354,10.354,0,0,1-18.822,0,1.8,1.8,0,0,0-3.274,1.5,13.957,13.957,0,0,0,25.37,0A1.8,1.8,0,0,0,257.675,333.587Zm0,0" transform="translate(-203.508 -285.37)" fill="#8dc4b7"/>
      <path id="Path_191" data-name="Path 191" d="M352.743,262.962h1.567a1.8,1.8,0,0,0,0-3.6h-1.567a1.8,1.8,0,1,0,0,3.6Zm0,0" transform="translate(-304.43 -221.981)" fill="#8dc4b7"/>
      <path id="Path_192" data-name="Path 192" d="M259.36,262.962h1.568a1.8,1.8,0,1,0,0-3.6H259.36a1.8,1.8,0,0,0,0,3.6Zm0,0" transform="translate(-224.506 -221.981)" fill="#8dc4b7"/>
      <path id="Path_193" data-name="Path 193" d="M-2.949,311.1a1.805,1.805,0,0,0,1.8-1.8,1.8,1.8,0,0,0-1.8-1.8,1.8,1.8,0,0,0-1.8,1.8A1.8,1.8,0,0,0-2.949,311.1Zm0,0" transform="translate(0 -263.184)" fill="#8dc4b7"/>
    </g>
  </g>
</svg>
