<svg xmlns="http://www.w3.org/2000/svg" xmlns:xlink="http://www.w3.org/1999/xlink" width="126" height="126" viewBox="0 0 126 126">
  <defs>
    <filter id="Ellipse_26" x="0" y="1" width="130" height="130" filterUnits="userSpaceOnUse">
      <feOffset dy="3" input="SourceAlpha"/>
      <feGaussianBlur stdDeviation="3" result="blur"/>
      <feFlood flood-opacity="0.161"/>
      <feComposite operator="in" in2="blur"/>
      <feComposite in="SourceGraphic"/>
    </filter>
    <filter id="Ellipse_25" x="-4" y="1" width="130" height="130" filterUnits="userSpaceOnUse">
      <feOffset dy="3" input="SourceAlpha"/>
      <feGaussianBlur stdDeviation="3" result="blur-2"/>
      <feFlood flood-opacity="0.161"/>
      <feComposite operator="in" in2="blur-2"/>
      <feComposite in="SourceGraphic"/>
    </filter>
    <clipPath id="clip-Icono_5">
      <rect width="126" height="126"/>
    </clipPath>
  </defs>
  <g id="Icono_5" data-name="Icono – 5" clip-path="url(#clip-Icono_5)">
    <rect width="126" height="126" fill="none"/>
    <g id="Icono_recibi_solicitudes" data-name="Icono recibi solicitudes" transform="translate(-261 -1524)">
      <g transform="matrix(1, 0, 0, 1, 261, 1524)" filter="url(#Ellipse_26)">
        <circle id="Ellipse_26-2" data-name="Ellipse 26" cx="56" cy="56" r="56" transform="translate(9 7)" fill="#ffc906"/>
      </g>
      <g transform="matrix(1, 0, 0, 1, 261, 1524)" filter="url(#Ellipse_25)">
        <circle id="Ellipse_25-2" data-name="Ellipse 25" cx="56" cy="56" r="56" transform="translate(5 7)" fill="#fff"/>
      </g>
      <g id="Icono_resume-1" data-name="Icono resume-1" transform="translate(292.643 1553.766)">
        <g id="Group_266" data-name="Group 266" transform="translate(29.959 48.422)">
          <g id="Group_265" data-name="Group 265">
            <path id="Path_243" data-name="Path 243" d="M248.336,354.386a1.367,1.367,0,1,0,.4.967A1.378,1.378,0,0,0,248.336,354.386Z" transform="translate(-246.001 -353.985)" fill="#83878c"/>
          </g>
        </g>
        <g id="Group_268" data-name="Group 268" transform="translate(0)">
          <g id="Group_267" data-name="Group 267">
            <path id="Path_244" data-name="Path 244" d="M85.84,7.386h-8.1V2.736A2.739,2.739,0,0,0,75.007,0H41.628a2.739,2.739,0,0,0-2.736,2.736v4.65h-8.1a3.8,3.8,0,0,0-3.8,3.8V51.74a3.8,3.8,0,0,0,3.8,3.8H51.612v6.319a6.858,6.858,0,0,0-6.153,6.813,1.368,1.368,0,0,0,1.368,1.368H69.808a1.368,1.368,0,0,0,1.368-1.368,6.858,6.858,0,0,0-6.153-6.813V55.536H85.84a3.8,3.8,0,0,0,3.8-3.8V11.183A3.8,3.8,0,0,0,85.84,7.386Zm-56.113,3.8a1.066,1.066,0,0,1,1.068-1.061h8.1v9.166a1.368,1.368,0,0,0,2.736,0V2.736H75.006v41.31H41.628V29.187a1.368,1.368,0,0,0-2.736,0V44.045H29.727ZM68.206,67.3H48.428a4.119,4.119,0,0,1,3.879-2.745H64.328A4.12,4.12,0,0,1,68.206,67.3Zm-13.859-5.48V55.536h7.94v6.284ZM86.908,51.74A1.065,1.065,0,0,1,85.84,52.8H30.795a1.065,1.065,0,0,1-1.068-1.061V46.782H86.908V51.74Zm0-7.694H77.743V10.122h8.1a1.065,1.065,0,0,1,1.068,1.061V44.045Z" transform="translate(-26.991)" fill="#83878c"/>
          </g>
        </g>
        <g id="Group_270" data-name="Group 270" transform="translate(21.204 5.472)">
          <g id="Group_269" data-name="Group 269">
            <path id="Path_245" data-name="Path 245" d="M192.121,40a10.116,10.116,0,0,0-6.976,17.448,1.359,1.359,0,0,0,.161.154,10.1,10.1,0,0,0,13.63,0,1.37,1.37,0,0,0,.161-.154A10.116,10.116,0,0,0,192.121,40Zm0,17.51a7.344,7.344,0,0,1-4.243-1.345,5.034,5.034,0,0,1,8.485,0A7.344,7.344,0,0,1,192.121,57.512ZM190.713,49.7V49a1.408,1.408,0,0,1,2.816,0V49.7a1.408,1.408,0,0,1-2.816,0Zm7.59,4.463a7.7,7.7,0,0,0-2.691-2.235,4.118,4.118,0,0,0,.653-2.228V49a4.144,4.144,0,0,0-8.288,0V49.7a4.119,4.119,0,0,0,.653,2.228,7.7,7.7,0,0,0-2.691,2.235,7.387,7.387,0,1,1,12.364,0Z" transform="translate(-181.998 -40.002)" fill="#83878c"/>
          </g>
        </g>
        <g id="Group_272" data-name="Group 272" transform="translate(11.901 22.571)">
          <g id="Group_271" data-name="Group 271">
            <path id="Path_246" data-name="Path 246" d="M116.331,165.408a1.367,1.367,0,1,0,.4.967A1.378,1.378,0,0,0,116.331,165.408Z" transform="translate(-113.996 -165.007)" fill="#83878c"/>
          </g>
        </g>
        <g id="Group_274" data-name="Group 274" transform="translate(22.572 29.001)">
          <g id="Group_273" data-name="Group 273">
            <path id="Path_247" data-name="Path 247" d="M209.235,212.009H193.367a1.368,1.368,0,1,0,0,2.736h15.868a1.368,1.368,0,1,0,0-2.736Z" transform="translate(-191.999 -212.009)" fill="#83878c"/>
          </g>
        </g>
        <g id="Group_276" data-name="Group 276" transform="translate(38.44 35.02)">
          <g id="Group_275" data-name="Group 275">
            <path id="Path_248" data-name="Path 248" d="M310.339,256.412a1.367,1.367,0,1,0,.4.967A1.377,1.377,0,0,0,310.339,256.412Z" transform="translate(-308.004 -256.011)" fill="#83878c"/>
          </g>
        </g>
        <g id="Group_278" data-name="Group 278" transform="translate(22.572 35.02)">
          <g id="Group_277" data-name="Group 277">
            <path id="Path_249" data-name="Path 249" d="M203.992,256.01H193.367a1.368,1.368,0,1,0,0,2.736h10.625a1.368,1.368,0,1,0,0-2.736Z" transform="translate(-191.999 -256.01)" fill="#83878c"/>
          </g>
        </g>
      </g>
    </g>
  </g>
</svg>
