<svg xmlns="http://www.w3.org/2000/svg" xmlns:xlink="http://www.w3.org/1999/xlink" width="126" height="126" viewBox="0 0 126 126">
  <defs>
    <filter id="Ellipse_28" x="0" y="1" width="130" height="130" filterUnits="userSpaceOnUse">
      <feOffset dy="3" input="SourceAlpha"/>
      <feGaussianBlur stdDeviation="3" result="blur"/>
      <feFlood flood-opacity="0.161"/>
      <feComposite operator="in" in2="blur"/>
      <feComposite in="SourceGraphic"/>
    </filter>
    <filter id="Ellipse_27" x="-4" y="1" width="130" height="130" filterUnits="userSpaceOnUse">
      <feOffset dy="3" input="SourceAlpha"/>
      <feGaussianBlur stdDeviation="3" result="blur-2"/>
      <feFlood flood-opacity="0.161"/>
      <feComposite operator="in" in2="blur-2"/>
      <feComposite in="SourceGraphic"/>
    </filter>
    <clipPath id="clip-Icono_6">
      <rect width="126" height="126"/>
    </clipPath>
  </defs>
  <g id="Icono_6" data-name="Icono – 6" clip-path="url(#clip-Icono_6)">
    <rect width="126" height="126" fill="none"/>
    <g id="Icono_recibi_a_tu_nuevo_huesped" data-name="Icono recibi a tu nuevo huesped" transform="translate(-597 -1524)">
      <g transform="matrix(1, 0, 0, 1, 597, 1524)" filter="url(#Ellipse_28)">
        <circle id="Ellipse_28-2" data-name="Ellipse 28" cx="56" cy="56" r="56" transform="translate(9 7)" fill="#ffc906"/>
      </g>
      <g transform="matrix(1, 0, 0, 1, 597, 1524)" filter="url(#Ellipse_27)">
        <circle id="Ellipse_27-2" data-name="Ellipse 27" cx="56" cy="56" r="56" transform="translate(5 7)" fill="#fff"/>
      </g>
      <g id="Icono_key_card" data-name="Icono key card" transform="translate(623 1546)">
        <g id="Group_52" data-name="Group 52" transform="translate(0 12)">
          <g id="Group_51" data-name="Group 51" transform="translate(0 0)">
            <path id="Path_18" data-name="Path 18" d="M17.617,47.234H64.6a5.879,5.879,0,0,0,5.872-5.872V17.872A5.879,5.879,0,0,0,64.6,12H17.617a5.879,5.879,0,0,0-5.872,5.872V30.015a19.371,19.371,0,0,0,.02,35.622c0,.13-.02.257-.02.389A12.917,12.917,0,0,0,36.168,71.9H64.6a1.175,1.175,0,0,0,.917-.44l4.7-5.872A1.175,1.175,0,0,0,70,63.912l-4.7-3.523a1.171,1.171,0,0,0-.7-.235H62.247a1.176,1.176,0,0,0-.977.523l-1.554,2.331L57.205,60.5a1.173,1.173,0,0,0-.83-.343H54.026a1.173,1.173,0,0,0-1.174,1.174v2.349H50.175l-.907-2.72a1.175,1.175,0,0,0-1.115-.8h-4.7a1.176,1.176,0,0,0-.977.523l-1.372,2.058-1.372-2.058a1.176,1.176,0,0,0-.977-.523h-2.59a12.91,12.91,0,0,0-24.1,3.027,16.994,16.994,0,0,1-.327-30.56v8.742A5.879,5.879,0,0,0,17.617,47.234ZM14.094,31.642a16.929,16.929,0,0,1,3.715-.77,4.681,4.681,0,1,0-.051-2.347,19.16,19.16,0,0,0-3.664.669V17.872a3.528,3.528,0,0,1,3.523-3.523H64.6a3.528,3.528,0,0,1,3.523,3.523v23.49A3.528,3.528,0,0,1,64.6,44.885H17.617a3.528,3.528,0,0,1-3.523-3.523Zm6.2-3.2a2.349,2.349,0,1,1,0,2.349h2.022V28.443Zm-3.61,36.174a16.9,16.9,0,0,1-2.4-.546A10.564,10.564,0,0,1,34.349,61.8a1.175,1.175,0,0,0,1.076.7h2.7l2,3a1.218,1.218,0,0,0,1.954,0l2-3h3.223l.907,2.72a1.175,1.175,0,0,0,1.115.8h4.7A1.173,1.173,0,0,0,55.2,64.852V62.5h.688l3.179,3.179a1.175,1.175,0,0,0,1.808-.179l2-3h1.33l3.414,2.562-3.587,4.485H35.425a1.173,1.173,0,0,0-1.076.7,10.561,10.561,0,0,1-20.234-3.8,19.2,19.2,0,0,0,2.423.513C16.975,69.109,17.285,62.718,16.682,64.617Z" transform="translate(0 -12)" fill="#83878c"/>
            <path id="Path_290" data-name="Path 290" d="M224.085,335.555a3.142,3.142,0,1,0-4.442,0A3.145,3.145,0,0,0,224.085,335.555Zm0,0" transform="translate(-199.313 -315.484)" fill="#83878c"/>
            <path id="Path_291" data-name="Path 291" d="M223.486,334.956a2.79,2.79,0,1,0-3.946,0A2.793,2.793,0,0,0,223.486,334.956Zm0,0" transform="translate(-202.689 -279.222)" fill="#83878c"/>
          </g>
        </g>
        <g id="Group_54" data-name="Group 54" transform="translate(51.677 19.047)">
          <g id="Group_53" data-name="Group 53">
            <path id="Path_19" data-name="Path 19" d="M362.57,60h-9.4A1.173,1.173,0,0,0,352,61.174V79.966a1.173,1.173,0,0,0,1.174,1.174h9.4a1.173,1.173,0,0,0,1.174-1.174V61.174A1.173,1.173,0,0,0,362.57,60ZM361.4,78.792h-7.047V62.349H361.4Z" transform="translate(-352 -60)" fill="#83878c"/>
          </g>
        </g>
      </g>
    </g>
  </g>
</svg>
