<svg xmlns="http://www.w3.org/2000/svg" xmlns:xlink="http://www.w3.org/1999/xlink" width="126" height="126" viewBox="0 0 126 126">
  <defs>
    <clipPath id="clip-Icono_8">
      <rect width="126" height="126"/>
    </clipPath>
  </defs>
  <g id="Icono_8" data-name="Icono – 8" clip-path="url(#clip-Icono_8)">
    <rect width="126" height="126" fill="none"/>
    <path id="Path_178" data-name="Path 178" d="M77.206,0C56.519,0,39.541,14.262,38.228,32.227,18.527,33.216,0,47.422,0,66.636A32.108,32.108,0,0,0,8.961,88.61a13.974,13.974,0,0,1-3.693,13.166A2.3,2.3,0,0,0,6.893,105.7a25.346,25.346,0,0,0,17.561-7.1,52.363,52.363,0,0,0,15.987,2.5c20.684,0,37.66-14.259,38.977-32.22a51.67,51.67,0,0,0,13.774-2.451,25.346,25.346,0,0,0,17.561,7.1,2.3,2.3,0,0,0,1.625-3.922,13.974,13.974,0,0,1-3.693-13.166,32.108,32.108,0,0,0,8.961-21.974C117.647,14.5,97.693,0,77.206,0ZM40.441,96.507A46.451,46.451,0,0,1,24.7,93.8a2.3,2.3,0,0,0-2.546.583,20.733,20.733,0,0,1-10.312,6.12,18.583,18.583,0,0,0,1.4-13.676,2.293,2.293,0,0,0-.562-.971A27.613,27.613,0,0,1,4.6,66.636c0-16.192,16.415-29.871,35.846-29.871,18.348,0,34.467,12.759,34.467,29.871C74.908,83.107,59.446,96.507,40.441,96.507Zm64.526-42.825a2.3,2.3,0,0,0-.562.971,18.583,18.583,0,0,0,1.4,13.676,20.726,20.726,0,0,1-10.312-6.12,2.3,2.3,0,0,0-2.546-.583,45.265,45.265,0,0,1-13.537,2.654A32.89,32.89,0,0,0,66.995,41.36H96.967a2.3,2.3,0,1,0,0-4.6H59.936a42.855,42.855,0,0,0-17.1-4.528C44.155,16.8,59.067,4.6,77.206,4.6c19.431,0,35.846,13.679,35.846,29.871A27.613,27.613,0,0,1,104.967,53.682Zm0,0" transform="translate(4.471 10.802)" fill="#8dc4b7"/>
  </g>
</svg>
